<svg width="70" height="69" viewBox="0 0 70 69" fill="none" xmlns="http://www.w3.org/2000/svg">
<g clip-path="url(#clip0_9_6977)">
<mask id="mask0_9_6977" style="mask-type:luminance" maskUnits="userSpaceOnUse" x="0" y="0" width="70" height="69">
<path d="M35.0815 68.9361C54.1959 68.9361 69.6911 53.5117 69.6911 34.4848C69.6911 15.4578 54.1959 0.0334473 35.0815 0.0334473C15.9671 0.0334473 0.471863 15.4578 0.471863 34.4848C0.471863 53.5117 15.9671 68.9361 35.0815 68.9361Z" fill="white"/>
</mask>
<g mask="url(#mask0_9_6977)">
<path d="M35.0974 -28.3738H-64.1667V94.7944H35.0974V-28.3738Z" fill="#03A5ED"/>
</g>
<mask id="mask1_9_6977" style="mask-type:luminance" maskUnits="userSpaceOnUse" x="0" y="0" width="70" height="69">
<path d="M35.0815 68.9361C54.1959 68.9361 69.6911 53.5117 69.6911 34.4848C69.6911 15.4578 54.1959 0.0334473 35.0815 0.0334473C15.9671 0.0334473 0.471863 15.4578 0.471863 34.4848C0.471863 53.5117 15.9671 68.9361 35.0815 68.9361Z" fill="white"/>
</mask>
<g mask="url(#mask1_9_6977)">
<path d="M134.167 -28.3738H34.9025V94.7944H134.167V-28.3738Z" fill="#B5C0F1"/>
</g>
<mask id="mask2_9_6977" style="mask-type:luminance" maskUnits="userSpaceOnUse" x="0" y="0" width="70" height="69">
<path d="M35.0815 68.9361C54.1959 68.9361 69.6911 53.5117 69.6911 34.4848C69.6911 15.4578 54.1959 0.0334473 35.0815 0.0334473C15.9671 0.0334473 0.471863 15.4578 0.471863 34.4848C0.471863 53.5117 15.9671 68.9361 35.0815 68.9361Z" fill="white"/>
</mask>
<g mask="url(#mask2_9_6977)">
<path d="M34.9026 34.4847L-50.1821 80.3394L116.17 77.9526L34.9026 34.4847Z" fill="#221363"/>
</g>
<mask id="mask3_9_6977" style="mask-type:luminance" maskUnits="userSpaceOnUse" x="0" y="0" width="70" height="69">
<path d="M35.0815 68.9361C54.1959 68.9361 69.6911 53.5117 69.6911 34.4848C69.6911 15.4578 54.1959 0.0334473 35.0815 0.0334473C15.9671 0.0334473 0.471863 15.4578 0.471863 34.4848C0.471863 53.5117 15.9671 68.9361 35.0815 68.9361Z" fill="white"/>
</mask>
<g mask="url(#mask3_9_6977)">
<path d="M34.9025 12.4105V34.7223L53.5076 44.483L34.9025 12.4105Z" fill="#C1CCFF"/>
<path d="M34.9025 12.4105L16.2975 44.483L34.9344 34.7223L34.9025 12.4105Z" fill="#0FB3FC"/>
<path d="M34.9423 34.7223L16.3412 44.483H53.5474L34.9423 34.7223Z" fill="#3838A8"/>
</g>
</g>
<defs>
<clipPath id="clip0_9_6977">
<rect width="70" height="69" fill="white"/>
</clipPath>
</defs>
</svg>
